<svg xmlns="http://www.w3.org/2000/svg" viewBox="0 0 560 120" role="img" aria-labelledby="sgcpLightTitle">
  <title id="sgcpLightTitle">SGCP Rumbo Acad&#233;mico</title>
  <g transform="translate(8 12)">
    <polygon fill="#e2186e" points="0,12 78,0 88,14 10,26"/>
    <polygon fill="#c9a227" points="78,0 118,20 104,32 88,14"/>
    <polygon fill="#7eb6d4" points="6,34 72,22 82,36 16,48"/>
    <polygon fill="#dce0e4" points="72,22 108,40 94,52 82,36"/>
    <polygon fill="#d0122a" points="12,56 64,46 74,60 22,70"/>
    <polygon fill="#dce0e4" points="18,78 52,70 62,84 28,92"/>
  </g>
  <g transform="translate(154 10) skewX(-10)">
    <text x="0" y="52" fill="#ffffff" font-family="Arial Black, Arial, Helvetica, sans-serif" font-size="58" font-weight="900" letter-spacing="-3" stroke="#ffffff" stroke-width="2" paint-order="stroke fill">SGCP</text>
    <rect x="2" y="60" width="36" height="5" fill="#e2186e"/>
    <rect x="38" y="60" width="28" height="5" fill="#c9a227"/>
    <rect x="66" y="60" width="28" height="5" fill="#7eb6d4"/>
    <rect x="94" y="60" width="22" height="5" fill="#dce0e4"/>
    <rect x="116" y="60" width="22" height="5" fill="#d0122a"/>
    <text x="2" y="86" fill="#c9a227" font-family="Arial Black, Arial, Helvetica, sans-serif" font-size="15" font-weight="900" letter-spacing="3.4">RUMBO ACAD&#201;MICO</text>
  </g>
</svg>
